<svg xmlns="http://www.w3.org/2000/svg" viewBox="0 0 700 300" fill="none">
  <rect width="700" height="300" fill="#07111f"/>
  <text x="350" y="25" text-anchor="middle" fill="#8b9cb8" font-family="monospace" font-size="11" letter-spacing="3">SIDE VIEW · EV6</text>
  <line x1="350" y1="35" x2="350" y2="280" stroke="#0f2745" stroke-width="1" stroke-dasharray="4"/>
  <line x1="50" y1="230" x2="650" y2="230" stroke="#0f2745" stroke-width="1" stroke-dasharray="4"/>
  <path d="M180 130 Q350 40 520 130" stroke="#b8c4d4" stroke-width="3" fill="none"/>
  <line x1="180" y1="130" x2="180" y2="210" stroke="#b8c4d4" stroke-width="2.5"/>
  <line x1="520" y1="130" x2="520" y2="210" stroke="#b8c4d4" stroke-width="2.5"/>
  <line x1="180" y1="210" x2="520" y2="210" stroke="#b8c4d4" stroke-width="2"/>
  <line x1="220" y1="170" x2="480" y2="170" stroke="#b8c4d4" stroke-width="1.5"/>
  <rect x="200" y="195" width="300" height="15" rx="2" fill="#0f2745"/>
  <path d="M240 180 L460 180 L480 195 L220 195 Z" fill="#c8a62b" opacity="0.8"/>
  <rect x="300" y="175" width="100" height="12" rx="2" fill="#050505" stroke="#8b9cb8" stroke-width="1"/>
  <rect x="160" y="188" width="30" height="20" rx="3" fill="#1a2a3f"/>
  <circle cx="230" cy="230" r="38" stroke="#8899aa" stroke-width="3" fill="#050505"/>
  <circle cx="230" cy="230" r="16" stroke="#c8a62b" stroke-width="2" fill="none"/>
  <circle cx="470" cy="230" r="38" stroke="#8899aa" stroke-width="3" fill="#050505"/>
  <circle cx="470" cy="230" r="16" stroke="#c8a62b" stroke-width="2" fill="none"/>
  <line x1="230" y1="260" x2="470" y2="260" stroke="#c8a62b" stroke-width="1"/>
  <text x="350" y="275" text-anchor="middle" fill="#c8a62b" font-family="monospace" font-size="10">1248 mm wheelbase</text>
</svg>
