<svg xmlns="http://www.w3.org/2000/svg" viewBox="0 0 500 600" fill="none">
  <rect width="500" height="600" fill="#07111f"/>
  <text x="250" y="30" text-anchor="middle" fill="#8b9cb8" font-family="monospace" font-size="11" letter-spacing="3">TOP VIEW Ę EV6</text>
  <line x1="250" y1="40" x2="250" y2="560" stroke="#0f2745" stroke-width="1" stroke-dasharray="4"/>
  <line x1="50" y1="300" x2="450" y2="300" stroke="#0f2745" stroke-width="1" stroke-dasharray="4"/>
  <rect x="130" y="120" width="240" height="360" rx="8" stroke="#b8c4d4" stroke-width="2.5" fill="none"/>
  <line x1="130" y1="220" x2="370" y2="220" stroke="#b8c4d4" stroke-width="1.5"/>
  <line x1="130" y1="380" x2="370" y2="380" stroke="#b8c4d4" stroke-width="1.5"/>
  <line x1="250" y1="120" x2="250" y2="480" stroke="#b8c4d4" stroke-width="1.5"/>
  <rect x="160" y="240" width="180" height="120" rx="4" fill="#c8a62b" opacity="0.65"/>
  <rect x="190" y="270" width="120" height="60" rx="3" fill="#050505" stroke="#8b9cb8"/>
  <ellipse cx="130" cy="180" rx="35" ry="22" stroke="#8899aa" stroke-width="2.5" fill="#050505"/>
  <ellipse cx="370" cy="180" rx="35" ry="22" stroke="#8899aa" stroke-width="2.5" fill="#050505"/>
  <ellipse cx="130" cy="420" rx="35" ry="22" stroke="#8899aa" stroke-width="2.5" fill="#050505"/>
  <ellipse cx="370" cy="420" rx="35" ry="22" stroke="#8899aa" stroke-width="2.5" fill="#050505"/>
  <line x1="95" y1="180" x2="95" y2="420" stroke="#c8a62b" stroke-width="1"/>
  <text x="80" y="305" text-anchor="middle" fill="#c8a62b" font-family="monospace" font-size="9" transform="rotate(-90 80 305)">1280 mm</text>
  <line x1="405" y1="180" x2="405" y2="420" stroke="#c8a62b" stroke-width="1"/>
  <text x="420" y="305" text-anchor="middle" fill="#c8a62b" font-family="monospace" font-size="9" transform="rotate(90 420 305)">1350 mm</text>
  <text x="250" y="580" text-anchor="middle" fill="#8b9cb8" font-family="sans-serif" font-size="10">230 kg Ę PMSM Ę 50.4V 78Ah</text>
</svg>
